<svg id="visual" viewBox="0 0 900 600" width="900" height="600" xmlns="http://www.w3.org/2000/svg" xmlns:xlink="http://www.w3.org/1999/xlink" version="1.1"><g stroke-width="1" stroke-linejoin="bevel"><path d="M495 318L570 210L419 246Z" fill="#16223d" stroke="#16223d"></path><path d="M495 318L578 391L570 210Z" fill="#111b2f" stroke="#111b2f"></path><path d="M558 0L328 178L419 246Z" fill="#111b2f" stroke="#111b2f"></path><path d="M419 246L387 425L495 318Z" fill="#0c1322" stroke="#0c1322"></path><path d="M495 318L387 425L578 391Z" fill="#1b2a4a" stroke="#1b2a4a"></path><path d="M250 273L387 425L419 246Z" fill="#1d2c4f" stroke="#1d2c4f"></path><path d="M570 210L558 0L419 246Z" fill="#172541" stroke="#172541"></path><path d="M328 178L250 273L419 246Z" fill="#0e1626" stroke="#0e1626"></path><path d="M578 391L748 239L570 210Z" fill="#0e1626" stroke="#0e1626"></path><path d="M570 210L778 180L558 0Z" fill="#111b2f" stroke="#111b2f"></path><path d="M558 0L350 0L328 178Z" fill="#1b2a4a" stroke="#1b2a4a"></path><path d="M328 178L136 193L250 273Z" fill="#1d2c4f" stroke="#1d2c4f"></path><path d="M748 239L778 180L570 210Z" fill="#111b2f" stroke="#111b2f"></path><path d="M482 600L697 497L578 391Z" fill="#0c1322" stroke="#0c1322"></path><path d="M578 391L697 497L748 239Z" fill="#16223d" stroke="#16223d"></path><path d="M748 239L900 271L778 180Z" fill="#142038" stroke="#142038"></path><path d="M250 273L204 385L387 425Z" fill="#142038" stroke="#142038"></path><path d="M387 425L482 600L578 391Z" fill="#192746" stroke="#192746"></path><path d="M136 193L204 385L250 273Z" fill="#172541" stroke="#172541"></path><path d="M350 0L240 0L328 178Z" fill="#111b2f" stroke="#111b2f"></path><path d="M398 600L482 600L387 425Z" fill="#1b2a4a" stroke="#1b2a4a"></path><path d="M240 0L136 193L328 178Z" fill="#16223d" stroke="#16223d"></path><path d="M204 385L398 600L387 425Z" fill="#16223d" stroke="#16223d"></path><path d="M778 180L789 0L558 0Z" fill="#16223d" stroke="#16223d"></path><path d="M900 402L900 271L748 239Z" fill="#192746" stroke="#192746"></path><path d="M778 180L900 145L789 0Z" fill="#121d33" stroke="#121d33"></path><path d="M900 271L900 145L778 180Z" fill="#111b2f" stroke="#111b2f"></path><path d="M697 497L900 402L748 239Z" fill="#0c1322" stroke="#0c1322"></path><path d="M746 600L900 402L697 497Z" fill="#142038" stroke="#142038"></path><path d="M482 600L746 600L697 497Z" fill="#0e1626" stroke="#0e1626"></path><path d="M900 145L900 0L789 0Z" fill="#16223d" stroke="#16223d"></path><path d="M136 193L0 263L204 385Z" fill="#121d33" stroke="#121d33"></path><path d="M204 385L113 600L398 600Z" fill="#172541" stroke="#172541"></path><path d="M0 212L0 263L136 193Z" fill="#111b2f" stroke="#111b2f"></path><path d="M0 0L0 212L136 193Z" fill="#0e1626" stroke="#0e1626"></path><path d="M0 263L0 388L204 385Z" fill="#0e1626" stroke="#0e1626"></path><path d="M0 388L113 600L204 385Z" fill="#142038" stroke="#142038"></path><path d="M746 600L900 600L900 402Z" fill="#172541" stroke="#172541"></path><path d="M240 0L0 0L136 193Z" fill="#172541" stroke="#172541"></path><path d="M0 388L0 600L113 600Z" fill="#0f182b" stroke="#0f182b"></path></g></svg>